<svg id="visual" viewBox="0 0 900 600" width="900" height="600" xmlns="http://www.w3.org/2000/svg" xmlns:xlink="http://www.w3.org/1999/xlink" version="1.1"><path d="M0 533L21.5 531.5C43 530 86 527 128.8 530.5C171.7 534 214.3 544 257.2 542.5C300 541 343 528 385.8 527C428.7 526 471.3 537 514.2 542.7C557 548.3 600 548.7 642.8 547.2C685.7 545.7 728.3 542.3 771.2 539.5C814 536.7 857 534.3 878.5 533.2L900 532L900 601L878.5 601C857 601 814 601 771.2 601C728.3 601 685.7 601 642.8 601C600 601 557 601 514.2 601C471.3 601 428.7 601 385.8 601C343 601 300 601 257.2 601C214.3 601 171.7 601 128.8 601C86 601 43 601 21.5 601L0 601Z" fill="#0066FF" stroke-linecap="round" stroke-linejoin="miter"></path></svg>